<svg xmlns="http://www.w3.org/2000/svg" width="1920" height="800" viewBox="0 0 1920 800"><rect width="100%" height="100%" fill="#1e3a8a"/><path fill="#ffffff" d="m420.335 369.515-2.78 5.28q-.5.87-1.06 1.26-.56.4-1.39.4-.87 0-1.89-.65-1.01-.64-2.42-1.43t-3.3-1.43-4.46-.64q-2.33 0-4.07.56t-2.93 1.55q-1.18 1-1.76 2.39t-.58 3.05q0 2.12 1.18 3.53t3.13 2.4q1.95 1 4.44 1.79t5.11 1.68q2.61.89 5.1 2.07 2.49 1.19 4.44 2.99 1.95 1.81 3.14 4.42 1.18 2.62 1.18 6.35 0 4.07-1.39 7.62-1.39 3.54-4.07 6.18-2.67 2.63-6.53 4.15-3.86 1.51-8.84 1.51-2.87 0-5.65-.56t-5.33-1.59q-2.55-1.04-4.79-2.49-2.24-1.46-3.99-3.24l3.28-5.35q.42-.59 1.08-.98t1.41-.39q1.04 0 2.24.85 1.21.85 2.87 1.88 1.66 1.04 3.88 1.89t5.33.85q4.77 0 7.39-2.26 2.61-2.26 2.61-6.49 0-2.37-1.18-3.86-1.18-1.5-3.14-2.51-1.95-1.02-4.44-1.73-2.49-.7-5.06-1.53t-5.06-1.99-4.44-3.03-3.14-4.67q-1.18-2.8-1.18-6.91 0-3.28 1.31-6.39t3.8-5.52 6.14-3.86 8.38-1.45q5.31 0 9.8 1.66 4.48 1.66 7.63 4.64m17.27 28.18h19.33q0-1.99-.56-3.75-.56-1.77-1.68-3.09-1.12-1.33-2.84-2.1t-4-.77q-4.44 0-7 2.53-2.55 2.54-3.25 7.18m26.14 6.19h-26.35q.25 3.28 1.16 5.66.91 2.39 2.41 3.94 1.49 1.56 3.54 2.33 2.06.77 4.55.77t4.29-.59q1.81-.58 3.16-1.28 1.35-.71 2.36-1.29 1.02-.58 1.98-.58 1.28 0 1.9.96l2.95 3.73q-1.7 1.99-3.82 3.34-2.11 1.35-4.42 2.16-2.3.81-4.69 1.14-2.38.33-4.62.33-4.44 0-8.26-1.47t-6.64-4.36q-2.82-2.88-4.44-7.14-1.62-4.25-1.62-9.85 0-4.36 1.41-8.2t4.05-6.68q2.63-2.84 6.43-4.5t8.57-1.66q4.02 0 7.43 1.28 3.4 1.29 5.85 3.76t3.84 6.06 1.39 8.19q0 2.33-.5 3.14t-1.91.81m32.58 9v-7.18q-4.44.21-7.47.77t-4.86 1.43q-1.82.87-2.61 2.04-.79 1.16-.79 2.53 0 2.7 1.6 3.86 1.59 1.16 4.17 1.16 3.15 0 5.45-1.14 2.31-1.14 4.51-3.47m-21.67-22.37-1.82-3.27q7.34-6.73 17.68-6.73 3.73 0 6.68 1.23 2.95 1.22 4.98 3.4t3.09 5.21 1.06 6.64v26.89h-4.65q-1.45 0-2.24-.44-.79-.43-1.24-1.76l-.92-3.07q-1.62 1.45-3.15 2.55-1.54 1.1-3.2 1.85t-3.55 1.14q-1.88.39-4.17.39-2.69 0-4.98-.72-2.28-.73-3.94-2.18t-2.57-3.61-.91-5.02q0-1.62.53-3.22.54-1.6 1.77-3.05 1.22-1.45 3.17-2.74t4.8-2.24q2.84-.95 6.62-1.56 3.77-.6 8.63-.72v-2.49q0-4.28-1.83-6.33-1.82-2.05-5.27-2.05-2.49 0-4.13.58t-2.88 1.3q-1.25.73-2.26 1.31-1.02.58-2.27.58-1.07 0-1.82-.56t-1.21-1.31m51.55 33.37h-10.25v-42.58h6.26q2 0 2.62 1.87l.66 3.15q1.12-1.24 2.35-2.28 1.22-1.04 2.61-1.78 1.39-.75 2.99-1.19 1.6-.43 3.51-.43 4.02 0 6.62 2.18 2.59 2.17 3.88 5.79.99-2.12 2.49-3.64 1.49-1.51 3.27-2.47 1.79-.95 3.8-1.41 2.01-.45 4.05-.45 3.53 0 6.26 1.08 2.74 1.07 4.61 3.15 1.87 2.07 2.84 5.06.98 2.99.98 6.85v27.1h-10.25v-27.1q0-4.07-1.79-6.12-1.78-2.05-5.23-2.05-1.57 0-2.92.53-1.35.54-2.37 1.56-1.01 1.02-1.59 2.55-.59 1.54-.59 3.53v27.1h-10.29v-27.1q0-4.27-1.72-6.22t-5.04-1.95q-2.24 0-4.17 1.09-1.93 1.1-3.59 3.01zm59.38-61.67h10.25v61.67h-10.25zm28.6 35.48h19.34q0-1.99-.56-3.75-.56-1.77-1.68-3.09-1.12-1.33-2.85-2.1-1.72-.77-4-.77-4.44 0-6.99 2.53-2.56 2.54-3.26 7.18m26.14 6.19h-26.35q.25 3.28 1.16 5.66.92 2.39 2.41 3.94 1.49 1.56 3.55 2.33 2.05.77 4.54.77t4.3-.59q1.8-.58 3.15-1.28 1.35-.71 2.37-1.29 1.01-.58 1.97-.58 1.28 0 1.91.96l2.94 3.73q-1.7 1.99-3.81 3.34-2.12 1.35-4.42 2.16-2.31.81-4.69 1.14-2.39.33-4.63.33-4.44 0-8.26-1.47t-6.64-4.36q-2.82-2.88-4.44-7.14-1.62-4.25-1.62-9.85 0-4.36 1.41-8.2t4.05-6.68q2.63-2.84 6.43-4.5t8.57-1.66q4.03 0 7.43 1.28 3.4 1.29 5.85 3.76t3.84 6.06 1.39 8.19q0 2.33-.5 3.14t-1.91.81m38.39-17.97-2.32 3.69q-.42.66-.88.93-.45.27-1.16.27-.74 0-1.6-.41-.85-.42-1.97-.93-1.12-.52-2.55-.94-1.43-.41-3.38-.41-3.03 0-4.75 1.28-1.72 1.29-1.72 3.36 0 1.37.89 2.31.89.93 2.36 1.64 1.48.7 3.34 1.26 1.87.56 3.8 1.23 1.93.66 3.8 1.51t3.34 2.16 2.36 3.13q.9 1.83.9 4.4 0 3.07-1.1 5.67-1.1 2.59-3.26 4.48t-5.33 2.95q-3.18 1.05-7.33 1.05-2.2 0-4.29-.39-2.1-.39-4.03-1.1t-3.57-1.66-2.88-2.08l2.36-3.9q.46-.7 1.08-1.07.62-.38 1.58-.38.95 0 1.8.54.86.54 1.98 1.16 1.12.63 2.63 1.16 1.52.54 3.84.54 1.83 0 3.13-.43 1.31-.44 2.16-1.14.85-.71 1.25-1.64.39-.94.39-1.93 0-1.5-.89-2.45t-2.37-1.66q-1.47-.71-3.36-1.27t-3.86-1.22-3.86-1.56q-1.89-.89-3.36-2.26t-2.37-3.36q-.89-1.99-.89-4.81 0-2.62 1.04-4.98 1.04-2.37 3.05-4.13 2.01-1.77 5.02-2.82 3.01-1.06 6.95-1.06 4.4 0 8.01 1.45t6.02 3.82m36.48 0-2.33 3.69q-.41.66-.87.93-.45.27-1.16.27-.75 0-1.6-.41-.85-.42-1.97-.93-1.12-.52-2.55-.94-1.43-.41-3.38-.41-3.03 0-4.75 1.28-1.73 1.29-1.73 3.36 0 1.37.9 2.31.89.93 2.36 1.64 1.47.7 3.34 1.26t3.8 1.23q1.93.66 3.8 1.51 1.86.85 3.34 2.16 1.47 1.31 2.36 3.13.9 1.83.9 4.4 0 3.07-1.1 5.67-1.1 2.59-3.26 4.48t-5.34 2.95q-3.17 1.05-7.32 1.05-2.2 0-4.3-.39-2.09-.39-4.02-1.1t-3.57-1.66-2.88-2.08l2.36-3.9q.46-.7 1.08-1.07.62-.38 1.58-.38.95 0 1.8.54t1.97 1.16q1.12.63 2.64 1.16 1.51.54 3.84.54 1.82 0 3.13-.43 1.31-.44 2.16-1.14.85-.71 1.24-1.64.4-.94.4-1.93 0-1.5-.89-2.45-.9-.95-2.37-1.66t-3.36-1.27-3.86-1.22-3.86-1.56q-1.89-.89-3.36-2.26t-2.37-3.36q-.89-1.99-.89-4.81 0-2.62 1.04-4.98 1.04-2.37 3.05-4.13 2.01-1.77 5.02-2.82 3.01-1.06 6.95-1.06 4.4 0 8.01 1.45t6.02 3.82m41.13 8.13h8.34q3.07 0 5.35-.77 2.28-.76 3.8-2.2 1.51-1.43 2.26-3.48.75-2.06.75-4.59 0-2.4-.75-4.35-.75-1.96-2.24-3.32-1.5-1.37-3.78-2.1t-5.39-.73h-8.34zm-11.17-30.17h19.51q6.01 0 10.41 1.41t7.27 3.94q2.86 2.54 4.25 6.06 1.39 3.53 1.39 7.72 0 4.36-1.45 7.99-1.46 3.63-4.36 6.25-2.91 2.61-7.28 4.06-4.38 1.46-10.23 1.46h-8.34v21.12h-11.17zm58.81 20 .62 4.82q1.99-3.82 4.73-6t6.47-2.18q2.95 0 4.74 1.29l-.67 7.68q-.21.74-.6 1.05-.39.32-1.06.32-.62 0-1.85-.21-1.22-.21-2.38-.21-1.7 0-3.03.5t-2.39 1.43-1.86 2.26q-.81 1.33-1.52 3.03v26.23h-10.25v-42.58h6.02q1.57 0 2.2.56.62.56.83 2.01m30 13.82h19.34q0-1.99-.56-3.75-.56-1.77-1.68-3.09-1.12-1.33-2.84-2.1-1.73-.77-4.01-.77-4.44 0-6.99 2.53-2.55 2.54-3.26 7.18m26.15 6.19h-26.36q.25 3.28 1.17 5.66.91 2.39 2.4 3.94 1.5 1.56 3.55 2.33 2.06.77 4.55.77t4.29-.59q1.81-.58 3.15-1.28 1.35-.71 2.37-1.29t1.97-.58q1.29 0 1.91.96l2.95 3.73q-1.7 1.99-3.82 3.34t-4.42 2.16-4.69 1.14-4.63.33q-4.44 0-8.26-1.47-3.81-1.47-6.64-4.36-2.82-2.88-4.44-7.14-1.61-4.25-1.61-9.85 0-4.36 1.41-8.2t4.04-6.68q2.64-2.84 6.43-4.5 3.8-1.66 8.57-1.66 4.03 0 7.43 1.28 3.41 1.29 5.85 3.76 2.45 2.47 3.84 6.06t1.39 8.19q0 2.33-.49 3.14-.5.81-1.91.81m9.75-.79v-8.55h21.5v8.55zm64.49-16.52-2.7 3.74q-.45.58-.89.91t-1.27.33q-.78 0-1.53-.48-.75-.47-1.79-1.07-1.03-.61-2.46-1.08-1.44-.48-3.55-.48-2.7 0-4.73.97-2.04.98-3.39 2.81-1.34 1.82-2.01 4.42-.66 2.59-.66 5.87 0 3.4.72 6.06.73 2.65 2.1 4.46 1.37 1.8 3.32 2.74 1.95.93 4.4.93t3.96-.6q1.52-.6 2.55-1.33 1.04-.73 1.81-1.33t1.72-.6q1.25 0 1.87.96l2.95 3.73q-1.71 1.99-3.7 3.34t-4.13 2.16q-2.13.81-4.4 1.14-2.26.33-4.5.33-3.94 0-7.43-1.47-3.48-1.47-6.1-4.3-2.61-2.82-4.13-6.91-1.51-4.08-1.51-9.31 0-4.69 1.35-8.7 1.35-4 3.96-6.93 2.61-2.92 6.47-4.58t8.88-1.66q4.78 0 8.37 1.53 3.59 1.54 6.45 4.4m17.06-24.36v23.66q2.49-2.33 5.47-3.78 2.99-1.45 7.02-1.45 3.48 0 6.18 1.18t4.5 3.32q1.81 2.14 2.74 5.1.94 2.97.94 6.54v27.1h-10.25v-27.1q0-3.9-1.79-6.04-1.78-2.13-5.43-2.13-2.66 0-4.98 1.2-2.33 1.2-4.4 3.28v30.79h-10.25v-61.67zm44.65 35.48h19.34q0-1.99-.56-3.75-.56-1.77-1.68-3.09-1.12-1.33-2.84-2.1-1.73-.77-4.01-.77-4.44 0-6.99 2.53-2.55 2.54-3.26 7.18m26.15 6.19h-26.36q.25 3.28 1.17 5.66.91 2.39 2.4 3.94 1.5 1.56 3.55 2.33t4.54.77 4.3-.59q1.81-.58 3.15-1.28 1.35-.71 2.37-1.29t1.97-.58q1.29 0 1.91.96l2.95 3.73q-1.71 1.99-3.82 3.34-2.12 1.35-4.42 2.16t-4.69 1.14-4.63.33q-4.44 0-8.26-1.47-3.81-1.47-6.64-4.36-2.82-2.88-4.44-7.14-1.62-4.25-1.62-9.85 0-4.36 1.42-8.2 1.41-3.84 4.04-6.68 2.64-2.84 6.43-4.5 3.8-1.66 8.57-1.66 4.03 0 7.43 1.28 3.41 1.29 5.85 3.76 2.45 2.47 3.84 6.06t1.39 8.19q0 2.33-.5 3.14-.49.81-1.9.81m43.28-17.31-2.7 3.74q-.45.58-.89.91t-1.27.33q-.78 0-1.53-.48-.75-.47-1.79-1.07-1.03-.61-2.46-1.08-1.44-.48-3.55-.48-2.7 0-4.73.97-2.04.98-3.39 2.81-1.34 1.82-2.01 4.42-.66 2.59-.66 5.87 0 3.4.72 6.06.73 2.65 2.1 4.46 1.37 1.8 3.32 2.74 1.95.93 4.4.93t3.96-.6q1.52-.6 2.55-1.33 1.04-.73 1.81-1.33t1.72-.6q1.25 0 1.87.96l2.95 3.73q-1.71 1.99-3.7 3.34t-4.13 2.16q-2.13.81-4.4 1.14-2.26.33-4.5.33-3.94 0-7.43-1.47-3.48-1.47-6.1-4.3-2.61-2.82-4.13-6.91-1.51-4.08-1.51-9.31 0-4.69 1.35-8.7 1.35-4 3.96-6.93 2.61-2.92 6.47-4.58t8.88-1.66q4.78 0 8.37 1.53 3.59 1.54 6.45 4.4m6.81-24.36h10.25v35.32h1.91q1.03 0 1.63-.27.61-.27 1.23-1.1l10.58-13.07q.67-.88 1.47-1.33.81-.46 2.1-.46h9.38l-13.24 15.81q-1.41 1.87-3.07 2.87.87.62 1.56 1.45.68.83 1.3 1.78l14.2 20.67h-9.26q-1.2 0-2.07-.39-.87-.4-1.46-1.44l-10.87-16.14q-.58-.95-1.2-1.24-.62-.3-1.87-.3h-2.32v19.51h-10.25zm104 10.54h-26.65v16.64h21v8.59h-21v16.98h26.65v8.92h-37.85v-60.01h37.85zm31.7 28.72 14.57 22.41h-9.88q-1.12 0-1.8-.58-.69-.58-1.15-1.33l-9-14.81q-.21.7-.48 1.32-.27.63-.6 1.17l-7.97 12.32q-.45.71-1.12 1.31-.66.6-1.66.6h-9.17l14.61-21.95-14.03-20.63h9.88q1.12 0 1.66.31t.95 1.02l8.92 14.19q.46-1.41 1.29-2.78l7.18-11.2q.91-1.54 2.37-1.54h9.42zm30.13-7.72v19.09q1.74 2.12 3.8 2.99 2.05.87 4.46.87 2.32 0 4.19-.87t3.17-2.66q1.31-1.78 2.02-4.5.7-2.72.7-6.41 0-3.74-.6-6.33t-1.72-4.21-2.72-2.37q-1.6-.74-3.63-.74-3.2 0-5.44 1.34-2.24 1.35-4.23 3.8m-1.37-10.58.83 3.94q2.62-2.95 5.94-4.77 3.32-1.83 7.8-1.83 3.48 0 6.37 1.46 2.88 1.45 4.98 4.21 2.09 2.76 3.23 6.8 1.15 4.05 1.15 9.28 0 4.77-1.29 8.84t-3.67 7.05q-2.39 2.99-5.77 4.67t-7.58 1.68q-3.56 0-6.1-1.1-2.53-1.1-4.52-3.05v17.43h-10.25v-56.48h6.27q1.99 0 2.61 1.87m46.36 14.52h19.34q0-1.99-.57-3.75-.56-1.77-1.68-3.09-1.12-1.33-2.84-2.1t-4-.77q-4.44 0-7 2.53-2.55 2.54-3.25 7.18m26.14 6.19h-26.35q.25 3.28 1.16 5.66.91 2.39 2.41 3.94 1.49 1.56 3.55 2.33 2.05.77 4.54.77t4.3-.59q1.8-.58 3.15-1.28 1.35-.71 2.36-1.29 1.02-.58 1.98-.58 1.28 0 1.91.96l2.94 3.73q-1.7 1.99-3.82 3.34-2.11 1.35-4.42 2.16-2.3.81-4.69 1.14-2.38.33-4.62.33-4.44 0-8.26-1.47t-6.64-4.36q-2.82-2.88-4.44-7.14-1.62-4.25-1.62-9.85 0-4.36 1.41-8.2t4.05-6.68q2.63-2.84 6.43-4.5t8.57-1.66q4.02 0 7.43 1.28 3.4 1.29 5.85 3.76t3.84 6.06 1.39 8.19q0 2.33-.5 3.14t-1.91.81m19.13-20.01.63 4.82q1.99-3.82 4.73-6t6.47-2.18q2.95 0 4.73 1.29l-.66 7.68q-.21.74-.6 1.05-.4.32-1.06.32-.63 0-1.85-.21t-2.39-.21q-1.7 0-3.03.5-1.32.5-2.38 1.43t-1.87 2.26-1.51 3.03v26.23h-10.25v-42.58h6.01q1.58 0 2.2.56.63.56.83 2.01m22.25-2.57h10.29v42.58h-10.29zm11.7-12.41q0 1.33-.54 2.49t-1.43 2.04q-.89.87-2.1 1.39-1.2.52-2.57.52-1.33 0-2.51-.52t-2.06-1.39q-.87-.88-1.39-2.04-.51-1.16-.51-2.49 0-1.37.51-2.57.52-1.2 1.39-2.08.88-.87 2.06-1.39 1.18-.51 2.51-.51 1.37 0 2.57.51 1.21.52 2.1 1.39.89.88 1.43 2.08t.54 2.57m17.14 28.8h19.34q0-1.99-.56-3.75-.56-1.77-1.68-3.09-1.12-1.33-2.85-2.1-1.72-.77-4-.77-4.44 0-6.99 2.53-2.56 2.54-3.26 7.18m26.14 6.19h-26.35q.25 3.28 1.16 5.66.92 2.39 2.41 3.94 1.49 1.56 3.55 2.33 2.05.77 4.54.77t4.3-.59q1.8-.58 3.15-1.28 1.35-.71 2.37-1.29 1.01-.58 1.97-.58 1.29 0 1.91.96l2.94 3.73q-1.7 1.99-3.81 3.34-2.12 1.35-4.42 2.16-2.31.81-4.69 1.14-2.39.33-4.63.33-4.44 0-8.26-1.47t-6.64-4.36q-2.82-2.88-4.44-7.14-1.62-4.25-1.62-9.85 0-4.36 1.41-8.2t4.05-6.68 6.43-4.5q3.8-1.66 8.57-1.66 4.03 0 7.43 1.28 3.4 1.29 5.85 3.76t3.84 6.06 1.39 8.19q0 2.33-.5 3.14-.49.81-1.91.81m18.97-20.71.71 3.36q1.28-1.29 2.71-2.39 1.44-1.1 3.03-1.86 1.6-.77 3.43-1.21 1.82-.43 3.98-.43 3.49 0 6.18 1.18 2.7 1.18 4.51 3.32 1.8 2.14 2.74 5.1.93 2.97.93 6.54v27.1h-10.25v-27.1q0-3.9-1.79-6.04-1.78-2.13-5.43-2.13-2.66 0-4.98 1.2-2.33 1.2-4.4 3.28v30.79h-10.25v-42.58h6.27q1.99 0 2.61 1.87m71.13 3.4-2.7 3.74q-.45.58-.89.91-.43.33-1.26.33-.79 0-1.54-.48-.75-.47-1.78-1.07-1.04-.61-2.47-1.08-1.44-.48-3.55-.48-2.7 0-4.73.97-2.04.98-3.39 2.81-1.34 1.82-2.01 4.42-.66 2.59-.66 5.87 0 3.4.72 6.06.73 2.65 2.1 4.46 1.37 1.8 3.32 2.74 1.95.93 4.4.93t3.96-.6q1.52-.6 2.55-1.33 1.04-.73 1.81-1.33t1.72-.6q1.25 0 1.87.96l2.95 3.73q-1.71 1.99-3.7 3.34t-4.13 2.16q-2.13.81-4.4 1.14-2.26.33-4.5.33-3.94 0-7.43-1.47-3.48-1.47-6.1-4.3-2.61-2.82-4.13-6.91-1.51-4.08-1.51-9.31 0-4.69 1.35-8.7 1.35-4 3.96-6.93 2.61-2.92 6.47-4.58t8.89-1.66q4.77 0 8.36 1.53 3.59 1.54 6.45 4.4m14.9 11.12h19.34q0-1.99-.56-3.75-.56-1.77-1.68-3.09-1.12-1.33-2.85-2.1-1.72-.77-4-.77-4.44 0-6.99 2.53-2.56 2.54-3.26 7.18m26.14 6.19h-26.35q.25 3.28 1.16 5.66.92 2.39 2.41 3.94 1.49 1.56 3.55 2.33 2.05.77 4.54.77t4.3-.59q1.8-.58 3.15-1.28 1.35-.71 2.37-1.29 1.01-.58 1.97-.58 1.29 0 1.91.96l2.94 3.73q-1.7 1.99-3.81 3.34-2.12 1.35-4.42 2.16-2.31.81-4.69 1.14-2.39.33-4.63.33-4.44 0-8.26-1.47t-6.64-4.36q-2.82-2.88-4.44-7.14-1.62-4.25-1.62-9.85 0-4.36 1.41-8.2t4.05-6.68 6.43-4.5q3.8-1.66 8.57-1.66 4.03 0 7.43 1.28 3.4 1.29 5.85 3.76t3.84 6.06 1.39 8.19q0 2.33-.5 3.14-.49.81-1.91.81"/></svg>